<svg width="197" height="48" viewBox="0 0 197 48" fill="none" xmlns="http://www.w3.org/2000/svg">
<path d="M52.92 28.36C51.46 28.36 50.22 28.13 49.2 27.67C48.18 27.21 47.4 26.54 46.86 25.66C46.32 24.78 46.05 23.68 46.05 22.36V21.37H49.38V22.45C49.38 23.43 49.68 24.19 50.28 24.73C50.88 25.25 51.76 25.51 52.92 25.51C54.06 25.51 54.93 25.13 55.53 24.37C56.13 23.61 56.43 22.52 56.43 21.1V7.42H59.79V21.04C59.79 22.66 59.52 24.02 58.98 25.12C58.44 26.2 57.66 27.01 56.64 27.55C55.62 28.09 54.38 28.36 52.92 28.36ZM70.8687 28.36C69.2287 28.36 67.8387 28.07 66.6987 27.49C65.5787 26.89 64.7287 25.98 64.1487 24.76C63.5887 23.54 63.3087 21.99 63.3087 20.11C63.3087 18.21 63.5887 16.66 64.1487 15.46C64.7287 14.24 65.5787 13.34 66.6987 12.76C67.8387 12.16 69.2287 11.86 70.8687 11.86C72.5487 11.86 73.9487 12.16 75.0687 12.76C76.1887 13.34 77.0287 14.24 77.5887 15.46C78.1687 16.66 78.4587 18.21 78.4587 20.11C78.4587 21.99 78.1687 23.54 77.5887 24.76C77.0287 25.98 76.1887 26.89 75.0687 27.49C73.9487 28.07 72.5487 28.36 70.8687 28.36ZM70.8687 25.78C71.8687 25.78 72.6887 25.59 73.3287 25.21C73.9687 24.81 74.4387 24.21 74.7387 23.41C75.0587 22.61 75.2187 21.6 75.2187 20.38V19.84C75.2187 18.62 75.0587 17.61 74.7387 16.81C74.4387 16.01 73.9687 15.42 73.3287 15.04C72.6887 14.64 71.8687 14.44 70.8687 14.44C69.8887 14.44 69.0787 14.64 68.4387 15.04C67.7987 15.42 67.3187 16.01 66.9987 16.81C66.6987 17.61 66.5487 18.62 66.5487 19.84V20.38C66.5487 21.6 66.6987 22.61 66.9987 23.41C67.3187 24.21 67.7987 24.81 68.4387 25.21C69.0787 25.59 69.8887 25.78 70.8687 25.78ZM87.0689 28.36C85.7889 28.36 84.6789 28.07 83.7389 27.49C82.7989 26.91 82.0689 26.01 81.5489 24.79C81.0489 23.57 80.7989 21.99 80.7989 20.05C80.7989 18.15 81.0589 16.6 81.5789 15.4C82.0989 14.2 82.8189 13.31 83.7389 12.73C84.6589 12.15 85.7189 11.86 86.9189 11.86C87.6189 11.86 88.2689 11.94 88.8689 12.1C89.4689 12.26 89.9989 12.51 90.4589 12.85C90.9389 13.19 91.3389 13.62 91.6589 14.14H91.8689V6.31H94.9889V28H92.4389L92.1389 25.84H91.9289C91.4089 26.68 90.7189 27.31 89.8589 27.73C89.0189 28.15 88.0889 28.36 87.0689 28.36ZM87.9389 25.66C88.8589 25.66 89.5989 25.46 90.1589 25.06C90.7389 24.64 91.1689 24.04 91.4489 23.26C91.7289 22.46 91.8689 21.49 91.8689 20.35V19.93C91.8689 18.97 91.7789 18.15 91.5989 17.47C91.4189 16.79 91.1589 16.24 90.8189 15.82C90.4789 15.38 90.0689 15.06 89.5889 14.86C89.1089 14.66 88.5689 14.56 87.9689 14.56C87.0489 14.56 86.2989 14.75 85.7189 15.13C85.1389 15.49 84.7089 16.06 84.4289 16.84C84.1689 17.62 84.0389 18.63 84.0389 19.87V20.41C84.0389 21.65 84.1789 22.66 84.4589 23.44C84.7389 24.2 85.1589 24.76 85.7189 25.12C86.2989 25.48 87.0389 25.66 87.9389 25.66ZM99.012 28V6.31H102.132V14.11H102.342C102.722 13.63 103.152 13.23 103.632 12.91C104.112 12.57 104.652 12.31 105.252 12.13C105.852 11.95 106.512 11.86 107.232 11.86C108.232 11.86 109.112 12.04 109.872 12.4C110.632 12.74 111.222 13.3 111.642 14.08C112.082 14.86 112.302 15.91 112.302 17.23V28H109.182V17.71C109.182 17.11 109.102 16.61 108.942 16.21C108.802 15.81 108.592 15.49 108.312 15.25C108.032 15.01 107.702 14.84 107.322 14.74C106.942 14.64 106.522 14.59 106.062 14.59C105.342 14.59 104.682 14.76 104.082 15.1C103.502 15.44 103.032 15.92 102.672 16.54C102.312 17.16 102.132 17.9 102.132 18.76V28H99.012ZM116.209 33.19V12.22H118.759L119.029 14.38H119.239C119.779 13.54 120.469 12.91 121.309 12.49C122.149 12.07 123.089 11.86 124.129 11.86C125.429 11.86 126.539 12.15 127.459 12.73C128.399 13.31 129.119 14.21 129.619 15.43C130.119 16.65 130.369 18.23 130.369 20.17C130.369 22.05 130.109 23.6 129.589 24.82C129.089 26.02 128.379 26.91 127.459 27.49C126.539 28.07 125.479 28.36 124.279 28.36C123.579 28.36 122.929 28.28 122.329 28.12C121.729 27.96 121.189 27.71 120.709 27.37C120.249 27.03 119.849 26.6 119.509 26.08H119.329V33.19H116.209ZM123.199 25.66C124.139 25.66 124.899 25.48 125.479 25.12C126.059 24.74 126.479 24.16 126.739 23.38C127.019 22.6 127.159 21.61 127.159 20.41V19.87C127.159 18.61 127.019 17.59 126.739 16.81C126.459 16.03 126.029 15.46 125.449 15.1C124.889 14.74 124.159 14.56 123.259 14.56C122.339 14.56 121.589 14.77 121.009 15.19C120.429 15.59 119.999 16.19 119.719 16.99C119.459 17.79 119.329 18.76 119.329 19.9V20.32C119.329 21.26 119.419 22.07 119.599 22.75C119.779 23.43 120.039 23.99 120.379 24.43C120.719 24.85 121.129 25.16 121.609 25.36C122.089 25.56 122.619 25.66 123.199 25.66ZM138.532 28.36C137.012 28.36 135.782 27.96 134.842 27.16C133.902 26.34 133.432 24.95 133.432 22.99V12.22H136.552V22.51C136.552 23.11 136.622 23.61 136.762 24.01C136.922 24.41 137.142 24.73 137.422 24.97C137.702 25.21 138.032 25.38 138.412 25.48C138.792 25.58 139.212 25.63 139.672 25.63C140.392 25.63 141.042 25.46 141.622 25.12C142.222 24.76 142.702 24.27 143.062 23.65C143.422 23.01 143.602 22.28 143.602 21.46V12.22H146.722V28H144.172L143.902 25.75H143.692C143.312 26.33 142.862 26.81 142.342 27.19C141.822 27.57 141.242 27.86 140.602 28.06C139.982 28.26 139.292 28.36 138.532 28.36ZM150.75 28V12.22H153.33L153.6 14.77H153.78C153.96 14.27 154.19 13.8 154.47 13.36C154.77 12.92 155.15 12.56 155.61 12.28C156.09 12 156.67 11.86 157.35 11.86C157.67 11.86 157.95 11.89 158.19 11.95C158.45 12.01 158.65 12.06 158.79 12.1V15.04H157.74C157.1 15.04 156.53 15.14 156.03 15.34C155.55 15.54 155.14 15.84 154.8 16.24C154.48 16.62 154.24 17.09 154.08 17.65C153.94 18.21 153.87 18.84 153.87 19.54V28H150.75ZM161.121 9.49V6.31H164.241V9.49H161.121ZM161.121 28V12.22H164.241V28H161.121Z" fill="black"/>
<path d="M122.296 45V34.024H124.088V38.616H129.656V34.024H131.448V45H129.656V40.152H124.088V45H122.296ZM135.95 45.192C135.683 45.192 135.395 45.16 135.086 45.096C134.777 45.032 134.483 44.9147 134.206 44.744C133.939 44.5733 133.721 44.3387 133.55 44.04C133.379 43.7307 133.294 43.3307 133.294 42.84C133.294 42.264 133.427 41.7893 133.694 41.416C133.961 41.0427 134.334 40.7493 134.814 40.536C135.294 40.3227 135.865 40.1733 136.526 40.088C137.198 40.0027 137.929 39.96 138.718 39.96V39.128C138.718 38.8507 138.67 38.6053 138.574 38.392C138.489 38.1787 138.323 38.0133 138.078 37.896C137.843 37.7787 137.502 37.72 137.054 37.72C136.606 37.72 136.254 37.7787 135.998 37.896C135.753 38.0027 135.577 38.1413 135.47 38.312C135.374 38.472 135.326 38.648 135.326 38.84V39.08H133.726C133.715 39.0267 133.71 38.9733 133.71 38.92C133.71 38.8667 133.71 38.8027 133.71 38.728C133.71 38.2267 133.849 37.8053 134.126 37.464C134.414 37.112 134.814 36.8453 135.326 36.664C135.838 36.4827 136.43 36.392 137.102 36.392C137.827 36.392 138.43 36.4987 138.91 36.712C139.401 36.9147 139.769 37.208 140.014 37.592C140.259 37.976 140.382 38.44 140.382 38.984V43.256C140.382 43.4587 140.43 43.6027 140.526 43.688C140.633 43.7733 140.755 43.816 140.894 43.816H141.47V44.936C141.342 44.9893 141.182 45.0427 140.99 45.096C140.798 45.1493 140.574 45.176 140.318 45.176C140.03 45.176 139.785 45.1227 139.582 45.016C139.39 44.92 139.23 44.7813 139.102 44.6C138.985 44.408 138.905 44.1947 138.862 43.96H138.766C138.574 44.2053 138.339 44.424 138.062 44.616C137.795 44.7973 137.486 44.936 137.134 45.032C136.782 45.1387 136.387 45.192 135.95 45.192ZM136.414 43.816C136.745 43.816 137.049 43.768 137.326 43.672C137.614 43.5653 137.859 43.4213 138.062 43.24C138.265 43.048 138.425 42.824 138.542 42.568C138.659 42.3013 138.718 42.0133 138.718 41.704V41.144C137.982 41.144 137.337 41.1867 136.782 41.272C136.227 41.3573 135.795 41.5173 135.486 41.752C135.177 41.976 135.022 42.2907 135.022 42.696C135.022 42.9413 135.075 43.1493 135.182 43.32C135.289 43.48 135.449 43.6027 135.662 43.688C135.875 43.7733 136.126 43.816 136.414 43.816ZM142.619 45V36.584H143.995L144.139 37.784H144.251C144.454 37.4747 144.694 37.2187 144.971 37.016C145.248 36.8133 145.552 36.6587 145.883 36.552C146.224 36.4453 146.598 36.392 147.003 36.392C147.536 36.392 148.006 36.488 148.411 36.68C148.816 36.8613 149.131 37.16 149.355 37.576C149.59 37.992 149.707 38.552 149.707 39.256V45H148.043V39.512C148.043 39.192 148 38.9253 147.915 38.712C147.84 38.4987 147.728 38.328 147.579 38.2C147.43 38.072 147.254 37.9813 147.051 37.928C146.848 37.8747 146.624 37.848 146.379 37.848C145.995 37.848 145.643 37.944 145.323 38.136C145.014 38.3173 144.763 38.5733 144.571 38.904C144.379 39.2347 144.283 39.624 144.283 40.072V45H142.619ZM154.687 45.192C154.004 45.192 153.412 45.0373 152.911 44.728C152.409 44.4187 152.02 43.9387 151.743 43.288C151.476 42.6373 151.343 41.7947 151.343 40.76C151.343 39.7467 151.481 38.92 151.759 38.28C152.036 37.64 152.42 37.1653 152.911 36.856C153.401 36.5467 153.967 36.392 154.607 36.392C154.98 36.392 155.327 36.4347 155.647 36.52C155.967 36.6053 156.249 36.7387 156.495 36.92C156.751 37.1013 156.964 37.3307 157.135 37.608H157.247V33.432H158.911V45H157.551L157.391 43.848H157.279C157.001 44.296 156.633 44.632 156.175 44.856C155.727 45.08 155.231 45.192 154.687 45.192ZM155.151 43.752C155.641 43.752 156.036 43.6453 156.335 43.432C156.644 43.208 156.873 42.888 157.023 42.472C157.172 42.0453 157.247 41.528 157.247 40.92V40.696C157.247 40.184 157.199 39.7467 157.103 39.384C157.007 39.0213 156.868 38.728 156.687 38.504C156.505 38.2693 156.287 38.0987 156.031 37.992C155.775 37.8853 155.487 37.832 155.167 37.832C154.676 37.832 154.276 37.9333 153.967 38.136C153.657 38.328 153.428 38.632 153.279 39.048C153.14 39.464 153.071 40.0027 153.071 40.664V40.952C153.071 41.6133 153.145 42.152 153.295 42.568C153.444 42.9733 153.668 43.272 153.967 43.464C154.276 43.656 154.671 43.752 155.151 43.752ZM161.056 35.128V33.432H162.72V35.128H161.056ZM161.056 45V36.584H162.72V45H161.056ZM168.213 45.192C167.37 45.192 166.666 45.0373 166.101 44.728C165.536 44.408 165.109 43.9227 164.821 43.272C164.544 42.6213 164.405 41.7947 164.405 40.792C164.405 39.7893 164.549 38.968 164.837 38.328C165.125 37.6773 165.552 37.192 166.117 36.872C166.693 36.552 167.397 36.392 168.229 36.392C168.805 36.392 169.306 36.4667 169.733 36.616C170.16 36.7547 170.522 36.968 170.821 37.256C171.12 37.5333 171.338 37.88 171.477 38.296C171.626 38.712 171.701 39.1867 171.701 39.72H170.021C170.021 39.272 169.957 38.904 169.829 38.616C169.701 38.328 169.504 38.1147 169.237 37.976C168.97 37.8267 168.624 37.752 168.197 37.752C167.749 37.752 167.37 37.8587 167.061 38.072C166.752 38.2747 166.517 38.5893 166.357 39.016C166.197 39.432 166.117 39.9813 166.117 40.664V40.936C166.117 41.5867 166.192 42.1307 166.341 42.568C166.501 42.9947 166.736 43.3147 167.045 43.528C167.365 43.7307 167.77 43.832 168.261 43.832C168.688 43.832 169.029 43.7573 169.285 43.608C169.552 43.448 169.749 43.224 169.877 42.936C170.016 42.6373 170.085 42.28 170.085 41.864H171.701C171.701 42.3653 171.626 42.8187 171.477 43.224C171.338 43.6293 171.12 43.9813 170.821 44.28C170.533 44.568 170.17 44.792 169.733 44.952C169.296 45.112 168.789 45.192 168.213 45.192ZM173.385 45V36.584H174.761L174.905 37.944H175.001C175.097 37.6773 175.219 37.4267 175.369 37.192C175.529 36.9573 175.731 36.7653 175.977 36.616C176.233 36.4667 176.542 36.392 176.905 36.392C177.075 36.392 177.225 36.408 177.353 36.44C177.491 36.472 177.598 36.4987 177.673 36.52V38.088H177.113C176.771 38.088 176.467 38.1413 176.201 38.248C175.945 38.3547 175.726 38.5147 175.545 38.728C175.374 38.9307 175.246 39.1813 175.161 39.48C175.086 39.7787 175.049 40.1147 175.049 40.488V45H173.385ZM180.888 45.192C180.621 45.192 180.333 45.16 180.024 45.096C179.714 45.032 179.421 44.9147 179.144 44.744C178.877 44.5733 178.658 44.3387 178.488 44.04C178.317 43.7307 178.232 43.3307 178.232 42.84C178.232 42.264 178.365 41.7893 178.632 41.416C178.898 41.0427 179.272 40.7493 179.752 40.536C180.232 40.3227 180.802 40.1733 181.464 40.088C182.136 40.0027 182.866 39.96 183.656 39.96V39.128C183.656 38.8507 183.608 38.6053 183.512 38.392C183.426 38.1787 183.261 38.0133 183.016 37.896C182.781 37.7787 182.44 37.72 181.992 37.72C181.544 37.72 181.192 37.7787 180.936 37.896C180.69 38.0027 180.514 38.1413 180.408 38.312C180.312 38.472 180.264 38.648 180.264 38.84V39.08H178.664C178.653 39.0267 178.648 38.9733 178.648 38.92C178.648 38.8667 178.648 38.8027 178.648 38.728C178.648 38.2267 178.786 37.8053 179.064 37.464C179.352 37.112 179.752 36.8453 180.264 36.664C180.776 36.4827 181.368 36.392 182.04 36.392C182.765 36.392 183.368 36.4987 183.848 36.712C184.338 36.9147 184.706 37.208 184.952 37.592C185.197 37.976 185.32 38.44 185.32 38.984V43.256C185.32 43.4587 185.368 43.6027 185.464 43.688C185.57 43.7733 185.693 43.816 185.832 43.816H186.408V44.936C186.28 44.9893 186.12 45.0427 185.928 45.096C185.736 45.1493 185.512 45.176 185.256 45.176C184.968 45.176 184.722 45.1227 184.52 45.016C184.328 44.92 184.168 44.7813 184.04 44.6C183.922 44.408 183.842 44.1947 183.8 43.96H183.704C183.512 44.2053 183.277 44.424 183 44.616C182.733 44.7973 182.424 44.936 182.072 45.032C181.72 45.1387 181.325 45.192 180.888 45.192ZM181.352 43.816C181.682 43.816 181.986 43.768 182.264 43.672C182.552 43.5653 182.797 43.4213 183 43.24C183.202 43.048 183.362 42.824 183.48 42.568C183.597 42.3013 183.656 42.0133 183.656 41.704V41.144C182.92 41.144 182.274 41.1867 181.72 41.272C181.165 41.3573 180.733 41.5173 180.424 41.752C180.114 41.976 179.96 42.2907 179.96 42.696C179.96 42.9413 180.013 43.1493 180.12 43.32C180.226 43.48 180.386 43.6027 180.6 43.688C180.813 43.7733 181.064 43.816 181.352 43.816ZM187.924 45V37.96H186.692V36.584H187.924V35.368C187.924 35.016 187.978 34.6853 188.084 34.376C188.202 34.0667 188.399 33.8107 188.676 33.608C188.964 33.4053 189.37 33.304 189.892 33.304C190.042 33.304 190.191 33.3147 190.34 33.336C190.5 33.3467 190.65 33.368 190.788 33.4C190.927 33.432 191.05 33.4693 191.156 33.512V34.68H190.34C190.084 34.68 189.892 34.744 189.764 34.872C189.647 35 189.588 35.1867 189.588 35.432V36.584H191.156V37.96H189.588V45H187.924ZM194.34 45.192C193.86 45.192 193.481 45.1013 193.204 44.92C192.937 44.728 192.745 44.488 192.628 44.2C192.521 43.9013 192.468 43.5867 192.468 43.256V37.96H191.412V36.584H192.5L192.804 34.232H194.132V36.584H195.652V37.96H194.132V43.064C194.132 43.3093 194.185 43.496 194.292 43.624C194.399 43.752 194.575 43.816 194.82 43.816H195.652V44.936C195.545 44.9787 195.412 45.016 195.252 45.048C195.103 45.0907 194.948 45.1227 194.788 45.144C194.628 45.176 194.479 45.192 194.34 45.192Z" fill="#BB5036"/>
<path d="M18.2744 4.08382L25.2535 8.11403L28.7923 6.07658L18.2744 0L0.705933 10.1515L4.22678 12.1889L18.2744 4.08382Z" fill="#BB5036"/>
<path d="M32.3132 8.11401L18.2745 16.2191L11.2954 12.1889L7.76562 14.2263L18.2745 20.294L35.8519 10.1515L32.3132 8.11401Z" fill="#BB5036"/>
<path d="M3.52978 21.7506L0 19.7131V31.8484L17.5685 41.9999V37.925L3.52978 29.811V21.7506Z" fill="#BB5036"/>
<path d="M0 15.6381L14.0387 23.7432V31.8036L17.5685 33.85V21.7058L0 11.5632V15.6381Z" fill="#BB5036"/>
<path d="M29.4983 19.7131V15.6382L18.9805 21.7058V41.9998L22.5103 39.9624V23.7433L29.4983 19.7131Z" fill="#BB5036"/>
<path d="M33.0192 13.6007V29.8109L26.04 33.85V37.9249L36.5579 31.8483V11.5632L33.0192 13.6007Z" fill="#BB5036"/>
</svg>
